# Blender v3.1.2 OBJ File: ''
# www.blender.org
mtllib Grass.mtl
o floor_base
v -4.707107 -0.100000 3.707107
v -4.923879 -0.100000 3.382684
v -4.707107 -0.500000 3.707107
v -4.382683 -0.500000 3.923880
v -4.382683 -0.100000 3.923880
v -5.000000 -0.100000 3.000000
v -4.923879 -0.500000 3.382684
v -5.000000 -0.500000 3.000000
v 4.707107 -0.100000 3.707107
v 4.382683 -0.500000 3.923880
v 4.707107 -0.500000 3.707107
v 4.382683 -0.100000 3.923880
v 4.923879 -0.100000 3.382684
v 4.000000 -0.500000 4.000000
v -4.000000 -0.500000 4.000000
v -4.000000 -0.100000 4.000000
v 4.000000 -0.100000 4.000000
v -4.829681 -0.000000 -3.343666
v -4.900000 0.000000 2.990149
v -4.829681 0.000000 3.343666
v -4.900000 0.000000 -2.990149
v -5.000000 -0.500000 -3.000000
v -5.000000 -0.100000 -3.000000
v -4.923879 -0.100000 -3.382684
v -4.923879 -0.500000 -3.382684
v -4.707107 -0.100000 -3.707107
v -4.707107 -0.500000 -3.707107
v -4.382683 -0.500000 -3.923880
v -4.000000 -0.100000 -4.000000
v -4.000000 -0.500000 -4.000000
v 4.000000 -0.100000 -4.000000
v -4.382683 -0.100000 -3.923880
v 4.382683 -0.500000 -3.923880
v 4.000000 -0.500000 -4.000000
v 4.382683 -0.100000 -3.923880
v 4.707107 -0.500000 -3.707107
v 4.707107 -0.100000 -3.707107
v 4.923879 -0.500000 -3.382684
v 4.923879 -0.100000 -3.382684
v 5.000000 -0.500000 -3.000000
v 4.923879 -0.500000 3.382684
v 5.000000 -0.100000 3.000000
v 5.000000 -0.500000 3.000000
v 5.000000 -0.100000 -3.000000
v 4.923879 -0.500000 -3.382684
v 5.000000 -0.500000 3.000000
v 4.923879 -0.500000 3.382684
v 5.000000 -0.500000 -3.000000
v -3.995075 -0.013397 3.950000
v -4.343665 0.000000 3.829682
v -4.363174 -0.013397 3.876781
v 3.990150 0.000000 3.900000
v -3.990150 0.000000 3.900000
v 3.995075 -0.013397 3.950000
v -3.998680 -0.050000 3.986602
v -4.635011 0.000000 3.635010
v -4.671059 -0.013397 3.671059
v -4.377456 -0.050000 3.911259
v -4.697448 -0.050000 3.697448
v -4.000000 -0.100000 4.000000
v -4.382683 -0.100000 3.923880
v -4.707107 -0.100000 3.707107
v -4.829681 0.000000 3.343666
v -4.876781 -0.013397 3.363174
v -4.911259 -0.050000 3.377456
v -4.923879 -0.100000 3.382684
v -4.900000 0.000000 2.990149
v -4.950000 -0.013397 2.995074
v -4.986602 -0.050000 2.998680
v -5.000000 -0.100000 3.000000
v -4.900000 0.000000 -2.990149
v -4.950000 -0.013397 -2.995074
v -4.986602 -0.050000 -2.998680
v -5.000000 -0.100000 -3.000000
v -3.995075 -0.013397 -3.950000
v -4.343665 -0.000000 -3.829682
v -3.990150 0.000000 -3.900000
v -4.363174 -0.013397 -3.876781
v 3.990150 0.000000 -3.900000
v 3.995075 -0.013397 -3.950000
v -3.998680 -0.050000 -3.986602
v -4.377456 -0.050000 -3.911259
v -4.635011 0.000000 -3.635010
v -4.671059 -0.013397 -3.671059
v -4.000000 -0.100000 -4.000000
v -4.382683 -0.100000 -3.923880
v -4.697448 -0.050000 -3.697448
v -4.707107 -0.100000 -3.707107
v -4.911259 -0.050000 -3.377456
v -4.876781 -0.013397 -3.363174
v -4.829681 -0.000000 -3.343666
v -4.923879 -0.100000 -3.382684
v 4.950000 -0.013397 -2.995074
v 4.950000 -0.013397 2.995074
v 4.986602 -0.050000 2.998680
v 4.829681 -0.000000 -3.343666
v 4.900000 0.000000 -2.990149
v 4.876781 -0.013397 -3.363174
v 4.671059 -0.013397 -3.671059
v 4.635011 0.000000 -3.635010
v 4.900000 0.000000 2.990149
v 4.986602 -0.050000 -2.998680
v 5.000000 -0.100000 3.000000
v 4.911259 -0.050000 -3.377456
v 4.697448 -0.050000 -3.697448
v 5.000000 -0.100000 -3.000000
v 4.923879 -0.100000 -3.382684
v 4.377456 -0.050000 -3.911259
v 4.363174 -0.013397 -3.876781
v 4.343665 -0.000000 -3.829682
v 4.707107 -0.100000 -3.707107
v 4.382683 -0.100000 -3.923880
v 3.998680 -0.050000 -3.986602
v 4.000000 -0.100000 -4.000000
v 4.363174 -0.013397 3.876781
v 4.343665 0.000000 3.829682
v 3.998680 -0.050000 3.986602
v 4.671059 -0.013397 3.671059
v 4.635011 0.000000 3.635010
v 4.377456 -0.050000 3.911259
v 4.000000 -0.100000 4.000000
v 4.382683 -0.100000 3.923880
v 4.697448 -0.050000 3.697448
v 4.911259 -0.050000 3.377456
v 4.876781 -0.013397 3.363174
v 4.707107 -0.100000 3.707107
v 4.923879 -0.100000 3.382684
v 4.829681 0.000000 3.343666
v -4.635011 0.000000 3.635010
v -4.635011 0.000000 -3.635010
v -4.343665 0.000000 3.829682
v -4.343665 -0.000000 -3.829682
v -3.990150 0.000000 3.900000
v -3.990150 0.000000 -3.900000
v 3.990150 0.000000 3.900000
v 3.990150 0.000000 -3.900000
v 4.343665 0.000000 3.829682
v 4.343665 -0.000000 -3.829682
v 4.635011 0.000000 3.635010
v 4.635011 0.000000 -3.635010
v 4.829681 0.000000 3.343666
v 4.829681 -0.000000 -3.343666
v 4.900000 0.000000 -2.990149
v 4.900000 0.000000 2.990149
v 4.707107 -0.500000 3.707107
v 4.707107 -0.500000 -3.707107
v 4.382683 -0.500000 3.923880
v 4.382683 -0.500000 -3.923880
v 4.000000 -0.500000 4.000000
v 4.000000 -0.500000 -4.000000
v -4.000000 -0.500000 -4.000000
v -4.000000 -0.500000 4.000000
v -4.382683 -0.500000 3.923880
v -4.382683 -0.500000 -3.923880
v -4.707107 -0.500000 3.707107
v -4.707107 -0.500000 -3.707107
v -4.923879 -0.500000 3.382684
v -4.923879 -0.500000 -3.382684
v -5.000000 -0.500000 -3.000000
v -5.000000 -0.500000 3.000000
vt 0.098545 0.571407
vt 0.099102 0.571407
vt 0.098545 0.571407
vt 0.099102 0.571407
vt 0.096958 0.571407
vt 0.096958 0.571407
vt 0.094583 0.571407
vt 0.094583 0.571407
vt 0.091781 0.571407
vt 0.091781 0.571407
vt 0.033218 0.571407
vt 0.033218 0.571407
vt 0.030417 0.571407
vt 0.030417 0.571407
vt 0.028042 0.571407
vt 0.028042 0.571407
vt 0.026455 0.571407
vt 0.026455 0.571407
vt 0.025898 0.571407
vt 0.025898 0.571407
vt 0.028042 0.610281
vt 0.026455 0.610281
vt 0.028042 0.602657
vt 0.030417 0.602657
vt 0.030417 0.610281
vt 0.025898 0.610281
vt 0.026455 0.602657
vt 0.025898 0.602657
vt 0.096958 0.610281
vt 0.094583 0.602657
vt 0.096958 0.602657
vt 0.094583 0.610281
vt 0.098545 0.610281
vt 0.091781 0.602657
vt 0.033218 0.602657
vt 0.033218 0.610281
vt 0.091781 0.610281
vt 0.027145 0.643436
vt 0.026630 0.643436
vt 0.027145 0.643436
vt 0.026630 0.643436
vt 0.025898 0.602657
vt 0.025898 0.610281
vt 0.026455 0.610281
vt 0.026455 0.602657
vt 0.028042 0.610281
vt 0.028042 0.602657
vt 0.030417 0.602657
vt 0.033218 0.610281
vt 0.033218 0.602657
vt 0.091781 0.610281
vt 0.030417 0.610281
vt 0.094583 0.602657
vt 0.091781 0.602657
vt 0.094583 0.610281
vt 0.096958 0.602657
vt 0.096958 0.610281
vt 0.098545 0.602657
vt 0.098545 0.610281
vt 0.099102 0.602657
vt 0.098545 0.602657
vt 0.099102 0.610281
vt 0.099102 0.602657
vt 0.099102 0.610281
vt 0.033255 0.658806
vt 0.030703 0.659061
vt 0.030560 0.658806
vt 0.091709 0.659061
vt 0.033291 0.659061
vt 0.091745 0.658806
vt 0.033228 0.658109
vt 0.028570 0.659061
vt 0.028306 0.658806
vt 0.030455 0.658109
vt 0.028113 0.658109
vt 0.033218 0.657156
vt 0.030417 0.657156
vt 0.028042 0.657156
vt 0.027145 0.659061
vt 0.026800 0.658806
vt 0.026548 0.658109
vt 0.026455 0.657156
vt 0.026630 0.659061
vt 0.026264 0.658806
vt 0.025996 0.658109
vt 0.025898 0.657156
vt 0.026630 0.659061
vt 0.026264 0.658806
vt 0.025996 0.658109
vt 0.025898 0.657156
vt 0.033255 0.658806
vt 0.030703 0.659061
vt 0.033291 0.659061
vt 0.030560 0.658806
vt 0.091709 0.659061
vt 0.091745 0.658806
vt 0.033228 0.658109
vt 0.030455 0.658109
vt 0.028570 0.659061
vt 0.028306 0.658806
vt 0.033218 0.657156
vt 0.030417 0.657156
vt 0.028113 0.658109
vt 0.028042 0.657156
vt 0.026548 0.658109
vt 0.026800 0.658806
vt 0.027145 0.659061
vt 0.026455 0.657156
vt 0.098736 0.658806
vt 0.098736 0.658806
vt 0.099004 0.658109
vt 0.097855 0.659061
vt 0.098370 0.659061
vt 0.098200 0.658806
vt 0.096694 0.658806
vt 0.096430 0.659061
vt 0.098370 0.659061
vt 0.099004 0.658109
vt 0.099102 0.657156
vt 0.098452 0.658109
vt 0.096887 0.658109
vt 0.099102 0.657156
vt 0.098545 0.657156
vt 0.094545 0.658109
vt 0.094440 0.658806
vt 0.094297 0.659061
vt 0.096958 0.657156
vt 0.094583 0.657156
vt 0.091772 0.658109
vt 0.091781 0.657156
vt 0.094440 0.658806
vt 0.094297 0.659061
vt 0.091772 0.658109
vt 0.096694 0.658806
vt 0.096430 0.659061
vt 0.094545 0.658109
vt 0.091781 0.657156
vt 0.094583 0.657156
vt 0.096887 0.658109
vt 0.098452 0.658109
vt 0.098200 0.658806
vt 0.096958 0.657156
vt 0.098545 0.657156
vt 0.097855 0.659061
vt 0.028570 0.643436
vt 0.028570 0.643436
vt 0.030703 0.643436
vt 0.030703 0.643436
vt 0.033291 0.643436
vt 0.033291 0.643436
vt 0.091709 0.643436
vt 0.091709 0.643436
vt 0.094297 0.643436
vt 0.094297 0.643436
vt 0.096430 0.643436
vt 0.096430 0.643436
vt 0.097855 0.643436
vt 0.097855 0.643436
vt 0.098370 0.643436
vt 0.098370 0.643436
vn 0.0000 -1.0000 0.0000
vn -0.7010 0.1308 0.7011
vn -0.9159 0.1308 0.3794
vn -0.7071 0.0000 0.7071
vn -0.3827 0.0000 0.9239
vn -0.3794 0.1308 0.9159
vn -0.9867 0.1301 0.0972
vn -0.9239 0.0000 0.3827
vn -0.9952 0.0000 0.0980
vn 0.7010 0.1308 0.7010
vn 0.3827 0.0000 0.9239
vn 0.7071 0.0000 0.7071
vn 0.3794 0.1308 0.9159
vn 0.9159 0.1308 0.3794
vn 0.0980 0.0000 0.9952
vn -0.0980 0.0000 0.9952
vn -0.0972 0.1301 0.9867
vn 0.0972 0.1301 0.9867
vn -0.1329 0.9896 -0.0551
vn -0.1372 0.9904 0.0135
vn -0.1329 0.9896 0.0551
vn -0.1372 0.9904 -0.0135
vn -0.9952 0.0000 -0.0980
vn -0.9867 0.1301 -0.0972
vn -0.9159 0.1308 -0.3794
vn -0.9239 0.0000 -0.3827
vn -0.7010 0.1308 -0.7011
vn -0.7071 0.0000 -0.7071
vn -0.3827 0.0000 -0.9239
vn -0.0973 0.1301 -0.9867
vn -0.0980 0.0000 -0.9952
vn 0.0971 0.1301 -0.9867
vn -0.3794 0.1308 -0.9159
vn 0.3827 0.0000 -0.9239
vn 0.0980 0.0000 -0.9952
vn 0.3794 0.1308 -0.9159
vn 0.7071 0.0000 -0.7071
vn 0.7010 0.1308 -0.7010
vn 0.9239 0.0000 -0.3827
vn 0.9159 0.1308 -0.3794
vn 0.9952 0.0000 -0.0980
vn 0.9239 0.0000 0.3827
vn 0.9867 0.1301 0.0972
vn 0.9952 0.0000 0.0980
vn 0.9867 0.1301 -0.0972
vn -0.0500 0.8600 0.5079
vn -0.0551 0.9896 0.1329
vn -0.1979 0.8559 0.4778
vn 0.0135 0.9904 0.1372
vn -0.0135 0.9904 0.1372
vn 0.0500 0.8600 0.5079
vn -0.0852 0.4947 0.8649
vn -0.1017 0.9896 0.1017
vn -0.3657 0.8559 0.3657
vn -0.3330 0.4926 0.8040
vn -0.6154 0.4926 0.6154
vn -0.7010 0.1308 0.7010
vn -0.1329 0.9896 0.0550
vn -0.4778 0.8559 0.1979
vn -0.8040 0.4926 0.3330
vn -0.5079 0.8600 0.0500
vn -0.8649 0.4947 0.0852
vn -0.5079 0.8600 -0.0500
vn -0.8649 0.4947 -0.0852
vn -0.0500 0.8600 -0.5079
vn -0.0551 0.9896 -0.1329
vn -0.0135 0.9904 -0.1372
vn -0.1979 0.8559 -0.4778
vn 0.0135 0.9904 -0.1372
vn 0.0500 0.8600 -0.5079
vn -0.0852 0.4947 -0.8649
vn -0.3330 0.4926 -0.8040
vn -0.1017 0.9896 -0.1017
vn -0.3657 0.8559 -0.3657
vn -0.0972 0.1301 -0.9867
vn -0.6154 0.4926 -0.6154
vn -0.7010 0.1308 -0.7010
vn -0.8040 0.4926 -0.3330
vn -0.4778 0.8559 -0.1979
vn -0.1329 0.9896 -0.0550
vn 0.5079 0.8600 -0.0500
vn 0.5079 0.8600 0.0500
vn 0.8649 0.4947 0.0852
vn 0.1329 0.9896 -0.0550
vn 0.1372 0.9904 -0.0135
vn 0.4778 0.8559 -0.1979
vn 0.3657 0.8559 -0.3657
vn 0.1017 0.9896 -0.1017
vn 0.1372 0.9904 0.0135
vn 0.8649 0.4947 -0.0852
vn 0.8040 0.4926 -0.3330
vn 0.6154 0.4926 -0.6154
vn 0.3330 0.4926 -0.8040
vn 0.1979 0.8559 -0.4778
vn 0.0551 0.9896 -0.1329
vn 0.0852 0.4947 -0.8649
vn 0.0972 0.1300 -0.9867
vn 0.1979 0.8559 0.4778
vn 0.0551 0.9896 0.1329
vn 0.0852 0.4947 0.8649
vn 0.3657 0.8559 0.3657
vn 0.1017 0.9896 0.1017
vn 0.3330 0.4926 0.8040
vn 0.6154 0.4926 0.6154
vn 0.8040 0.4926 0.3330
vn 0.4778 0.8559 0.1979
vn 0.1329 0.9896 0.0550
vn -0.0550 0.9896 0.1329
vn 0.0550 0.9896 0.1329
vn 0.0550 0.9896 -0.1329
vn 0.1329 0.9896 0.0551
vn 0.1329 0.9896 -0.0551
usemtl tiny_treats_1
s off
f 45/1/1 46/2/1 47/3/1
f 46/2/1 45/1/1 48/4/1
f 145/5/1 45/1/1 47/3/1
f 145/5/1 146/6/1 45/1/1
f 147/7/1 146/6/1 145/5/1
f 147/7/1 148/8/1 146/6/1
f 148/8/1 149/9/1 150/10/1
f 149/9/1 151/11/1 150/10/1
f 149/9/1 152/12/1 151/11/1
f 149/9/1 148/8/1 147/7/1
f 151/11/1 152/12/1 153/13/1
f 153/13/1 154/14/1 151/11/1
f 154/14/1 153/13/1 155/15/1
f 154/14/1 155/15/1 156/16/1
f 156/16/1 155/15/1 157/17/1
f 156/16/1 157/17/1 158/18/1
f 157/17/1 159/19/1 158/18/1
f 159/19/1 157/17/1 160/20/1
s 1
f 1/21/2 2/22/3 3/23/4
f 1/21/2 4/24/5 5/25/6
f 2/22/3 6/26/7 7/27/8
f 3/23/4 2/22/3 7/27/8
f 7/27/8 6/26/7 8/28/9
f 9/29/10 10/30/11 11/31/12
f 10/30/11 9/29/10 12/32/13
f 11/31/12 13/33/14 9/29/10
f 12/32/13 14/34/15 10/30/11
f 5/25/6 15/35/16 16/36/17
f 15/35/16 5/25/6 4/24/5
f 16/36/17 14/34/15 17/37/18
f 4/24/5 1/21/2 3/23/4
f 18/38/19 19/39/20 20/40/21
f 19/39/20 18/38/19 21/41/22
f 22/42/23 23/43/24 24/44/25
f 22/42/23 24/44/25 25/45/26
f 25/45/26 24/44/25 26/46/27
f 25/45/26 26/46/27 27/47/28
f 14/34/15 16/36/17 15/35/16
f 14/34/15 12/32/13 17/37/18
f 28/48/29 29/49/30 30/50/31
f 29/49/30 31/51/32 30/50/31
f 29/49/30 28/48/29 32/52/33
f 32/52/33 27/47/28 26/46/27
f 6/26/7 23/43/24 8/28/9
f 8/28/9 23/43/24 22/42/23
f 31/51/32 33/53/34 34/54/35
f 34/54/35 30/50/31 31/51/32
f 27/47/28 32/52/33 28/48/29
f 33/53/34 31/51/32 35/55/36
f 35/55/36 36/56/37 33/53/34
f 36/56/37 35/55/36 37/57/38
f 37/57/38 38/58/39 36/56/37
f 38/58/39 37/57/38 39/59/40
f 39/59/40 40/60/41 38/58/39
f 41/61/42 42/62/43 13/33/14
f 42/62/43 41/61/42 43/63/44
f 13/33/14 11/31/12 41/61/42
f 43/63/44 44/64/45 42/62/43
f 40/60/41 39/59/40 44/64/45
f 44/64/45 43/63/44 40/60/41
f 49/65/46 50/66/47 51/67/48
f 49/65/46 52/68/49 53/69/50
f 49/65/46 54/70/51 52/68/49
f 50/66/47 49/65/46 53/69/50
f 51/67/48 55/71/52 49/65/46
f 51/67/48 56/72/53 57/73/54
f 55/71/52 51/67/48 58/74/55
f 58/74/55 57/73/54 59/75/56
f 58/74/55 60/76/17 55/71/52
f 60/76/17 58/74/55 61/77/6
f 61/77/6 59/75/56 62/78/57
f 56/72/53 51/67/48 50/66/47
f 57/73/54 63/79/58 64/80/59
f 57/73/54 58/74/55 51/67/48
f 57/73/54 65/81/60 59/75/56
f 59/75/56 65/81/60 66/82/3
f 59/75/56 61/77/6 58/74/55
f 63/79/58 57/73/54 56/72/53
f 63/79/58 67/83/20 68/84/61
f 64/80/59 68/84/61 69/85/62
f 65/81/60 57/73/54 64/80/59
f 65/81/60 69/85/62 70/86/7
f 66/82/3 62/78/57 59/75/56
f 68/84/61 64/80/59 63/79/58
f 67/83/20 71/87/22 72/88/63
f 69/85/62 65/81/60 64/80/59
f 69/85/62 72/88/63 73/89/64
f 70/86/7 66/82/3 65/81/60
f 70/86/7 73/89/64 74/90/24
f 75/91/65 76/92/66 77/93/67
f 76/92/66 75/91/65 78/94/68
f 77/93/67 79/95/69 80/96/70
f 77/93/67 80/96/70 75/91/65
f 78/94/68 81/97/71 82/98/72
f 78/94/68 83/99/73 76/92/66
f 81/97/71 78/94/68 75/91/65
f 82/98/72 84/100/74 78/94/68
f 85/101/75 82/98/72 81/97/71
f 85/101/75 86/102/33 82/98/72
f 86/102/33 87/103/76 82/98/72
f 86/102/33 88/104/77 87/103/76
f 83/99/73 78/94/68 84/100/74
f 84/100/74 89/105/78 90/106/79
f 84/100/74 91/107/80 83/99/73
f 84/100/74 90/106/79 91/107/80
f 84/100/74 82/98/72 87/103/76
f 87/103/76 92/108/25 89/105/78
f 90/106/79 73/89/64 72/88/63
f 91/107/80 72/88/63 71/87/22
f 89/105/78 84/100/74 87/103/76
f 89/105/78 74/90/24 73/89/64
f 92/108/25 87/103/76 88/104/77
f 72/88/63 69/85/62 68/84/61
f 72/88/63 68/84/61 67/83/20
f 72/88/63 91/107/80 90/106/79
f 73/89/64 70/86/7 69/85/62
f 73/89/64 90/106/79 89/105/78
f 74/90/24 89/105/78 92/108/25
f 93/109/81 94/110/82 95/111/83
f 93/109/81 96/112/84 97/113/85
f 93/109/81 98/114/86 96/112/84
f 96/112/84 99/115/87 100/116/88
f 97/113/85 101/117/89 94/110/82
f 102/118/90 95/111/83 103/119/43
f 102/118/90 98/114/86 93/109/81
f 102/118/90 104/120/91 98/114/86
f 104/120/91 105/121/92 99/115/87
f 104/120/91 99/115/87 98/114/86
f 104/120/91 106/122/45 107/123/40
f 106/122/45 104/120/91 102/118/90
f 107/123/40 105/121/92 104/120/91
f 99/115/87 96/112/84 98/114/86
f 99/115/87 108/124/93 109/125/94
f 100/116/88 109/125/94 110/126/95
f 105/121/92 107/123/40 111/127/38
f 105/121/92 112/128/36 108/124/93
f 109/125/94 113/129/96 80/96/70
f 109/125/94 100/116/88 99/115/87
f 110/126/95 80/96/70 79/95/69
f 108/124/93 114/130/97 113/129/96
f 108/124/93 99/115/87 105/121/92
f 112/128/36 105/121/92 111/127/38
f 80/96/70 110/126/95 109/125/94
f 113/129/96 81/97/71 75/91/65
f 113/129/96 109/125/94 108/124/93
f 113/129/96 75/91/65 80/96/70
f 114/130/97 85/101/75 81/97/71
f 114/130/97 81/97/71 113/129/96
f 114/130/97 108/124/93 112/128/36
f 54/70/51 115/131/98 116/132/99
f 54/70/51 116/132/99 52/68/49
f 54/70/51 55/71/52 117/133/100
f 54/70/51 49/65/46 55/71/52
f 115/131/98 118/134/101 119/135/102
f 117/133/100 120/136/103 115/131/98
f 117/133/100 115/131/98 54/70/51
f 117/133/100 60/76/17 121/137/18
f 117/133/100 55/71/52 60/76/17
f 120/136/103 117/133/100 121/137/18
f 120/136/103 121/137/18 122/138/13
f 120/136/103 123/139/104 118/134/101
f 118/134/101 115/131/98 120/136/103
f 118/134/101 124/140/105 125/141/106
f 119/135/102 116/132/99 115/131/98
f 123/139/104 120/136/103 122/138/13
f 123/139/104 122/138/13 126/142/10
f 123/139/104 127/143/14 124/140/105
f 128/144/107 119/135/102 118/134/101
f 128/144/107 118/134/101 125/141/106
f 128/144/107 94/110/82 101/117/89
f 125/141/106 95/111/83 94/110/82
f 124/140/105 118/134/101 123/139/104
f 124/140/105 103/119/43 95/111/83
f 127/143/14 123/139/104 126/142/10
f 94/110/82 93/109/81 97/113/85
f 94/110/82 128/144/107 125/141/106
f 95/111/83 102/118/90 93/109/81
f 95/111/83 125/141/106 124/140/105
f 103/119/43 124/140/105 127/143/14
f 103/119/43 106/122/45 102/118/90
f 129/145/53 130/146/73 18/38/19
f 129/145/53 18/38/19 20/40/21
f 130/146/73 129/145/53 131/147/108
f 131/147/108 132/148/66 130/146/73
f 132/148/66 131/147/108 133/149/50
f 133/149/50 134/150/67 132/148/66
f 133/149/50 135/151/49 134/150/67
f 135/151/49 136/152/69 134/150/67
f 136/152/69 137/153/109 138/154/110
f 137/153/109 136/152/69 135/151/49
f 138/154/110 139/155/102 140/156/88
f 139/155/102 138/154/110 137/153/109
f 140/156/88 139/155/102 141/157/111
f 140/156/88 141/157/111 142/158/112
f 141/157/111 143/159/85 142/158/112
f 143/159/85 141/157/111 144/160/89
