# Blender v3.1.2 OBJ File: ''
# www.blender.org
mtllib StoneGrond.mtl
o floor_dirt
v 2.000000 -0.500000 2.000000
v -2.000000 -0.500000 -2.000000
v 2.000000 -0.500000 -2.000000
v -2.000000 -0.500000 2.000000
v 2.000000 -0.500000 -2.000000
v -2.000000 -0.100000 -2.000000
v 2.000000 -0.100000 -2.000000
v -2.000000 -0.500000 -2.000000
v -2.000000 -0.500000 2.000000
v 2.000000 -0.500000 2.000000
v -2.000000 -0.100000 2.000000
v 2.000000 -0.100000 2.000000
v -2.000000 -0.100000 -2.000000
v -2.000000 -0.100000 2.000000
v -1.900000 -0.000000 1.900000
v -1.900000 0.000000 -1.900000
v -2.000000 -0.100000 2.000000
v 2.000000 -0.100000 2.000000
v 1.900000 -0.000000 1.900000
v -1.900000 -0.000000 1.900000
v -1.900000 0.000000 -1.900000
v 1.900000 0.000000 -1.900000
v 2.000000 -0.100000 -2.000000
v -2.000000 -0.100000 -2.000000
v 2.000000 -0.100000 2.000000
v 1.900000 0.000000 -1.900000
v 1.900000 -0.000000 1.900000
v 2.000000 -0.100000 -2.000000
v 2.000000 -0.500000 2.000000
v 2.000000 -0.100000 -2.000000
v 2.000000 -0.100000 2.000000
v 2.000000 -0.500000 -2.000000
v 1.900000 0.000000 -1.900000
v -1.900000 -0.000000 1.900000
v 1.900000 -0.000000 1.900000
v -1.900000 0.000000 -1.900000
v -2.000000 -0.500000 2.000000
v -2.000000 -0.100000 -2.000000
v -2.000000 -0.500000 -2.000000
v -2.000000 -0.100000 2.000000
v 0.284327 0.030000 -0.625655
v 0.313167 0.030000 -0.344286
v 0.439431 0.030000 -0.499391
v 0.158063 0.030000 -0.470550
v 0.185571 0.030000 -0.363188
v 0.116883 0.030000 -0.194689
v 0.235477 0.030000 -0.244594
v 0.066977 0.030000 -0.313282
v 1.011794 0.030000 -1.214499
v 1.222411 0.030000 -1.403285
v 1.022709 0.030000 -1.414200
v 1.211496 0.030000 -1.203583
v 1.382776 0.030000 -1.022779
v 1.217042 0.030000 -1.097898
v 1.262350 0.030000 -0.977471
v 1.337468 0.030000 -1.143205
v -0.203739 0.030000 -0.742700
v -0.232101 0.030000 -0.562961
v -0.128050 0.030000 -0.638650
v -0.307789 0.030000 -0.667012
v 1.199688 0.029999 1.529786
v 1.033310 0.029999 1.456107
v 1.079659 0.029999 1.576136
v 1.153339 0.029999 1.409757
v -1.049485 0.029999 1.410083
v -1.001699 0.029999 1.585658
v -0.937804 0.029999 1.473977
v -1.113380 0.029999 1.521764
v -0.738719 0.030000 1.228388
v -0.813932 0.030000 1.526566
v -0.627236 0.030000 1.415084
v -0.925415 0.030000 1.339871
v -0.851440 0.030000 0.193996
v -0.977895 0.030000 0.438997
v -0.792167 0.030000 0.379723
v -1.037168 0.030000 0.253269
v -1.211840 0.030000 -1.550010
v -1.377573 0.030000 -1.625129
v -1.332266 0.030000 -1.504702
v -1.257147 0.030000 -1.670436
v -0.821103 -0.065463 0.135219
v -1.037168 0.030000 0.253269
v -0.851440 0.030000 0.193996
v -1.095945 -0.065463 0.222932
v 1.079659 0.029999 1.576136
v 0.993394 -0.065464 1.438431
v 1.061983 -0.065464 1.616051
v 1.033310 0.029999 1.456107
v 1.011794 0.030000 -1.214499
v 1.022709 0.030000 -1.414200
v 0.961266 -0.065463 -1.169207
v 0.977418 -0.065463 -1.464729
v -1.350287 -0.065463 -1.464942
v -1.211840 0.030000 -1.550010
v -1.332266 0.030000 -1.504702
v -1.172079 -0.065463 -1.531988
v 1.239603 -0.065464 1.547462
v 1.153339 0.029999 1.409757
v 1.199688 0.029999 1.529786
v 1.171015 -0.065464 1.369842
v 0.961266 -0.065463 -1.169207
v 1.256787 -0.065463 -1.153054
v 1.011794 0.030000 -1.214499
v 1.211496 0.030000 -1.203583
v -1.239125 -0.065463 -1.710196
v -1.377573 0.030000 -1.625129
v -1.257147 0.030000 -1.670436
v -1.417333 -0.065463 -1.643150
v -1.001699 0.029999 1.585658
v -1.113380 0.029999 1.521764
v -0.990235 -0.065464 1.627780
v -1.155502 -0.065464 1.533228
v 1.272940 -0.065463 -1.448576
v 0.977418 -0.065463 -1.464729
v 1.222411 0.030000 -1.403285
v 1.022709 0.030000 -1.414200
v -1.332266 0.030000 -1.504702
v -1.417333 -0.065463 -1.643150
v -1.350287 -0.065463 -1.464942
v -1.377573 0.030000 -1.625129
v -1.060949 -0.065464 1.367961
v -0.937804 0.029999 1.473977
v -0.895682 -0.065464 1.462513
v -1.049485 0.029999 1.410083
v 1.244328 -0.065463 -0.937711
v 1.382776 0.030000 -1.022779
v 1.262350 0.030000 -0.977471
v 1.422536 -0.065463 -1.004757
v -1.172079 -0.065463 -1.531988
v -1.257147 0.030000 -1.670436
v -1.211840 0.030000 -1.550010
v -1.239125 -0.065463 -1.710196
v -1.155502 -0.065464 1.533228
v -1.049485 0.029999 1.410083
v -1.060949 -0.065464 1.367961
v -1.113380 0.029999 1.521764
v 1.355490 -0.065463 -1.182965
v 1.217042 0.030000 -1.097898
v 1.337468 0.030000 -1.143205
v 1.177281 -0.065463 -1.115919
v 0.090561 -0.065463 -0.463631
v 0.320086 -0.065463 -0.276784
v 0.158063 0.030000 -0.470550
v 0.313167 0.030000 -0.344286
v -0.990235 -0.065464 1.627780
v -0.895682 -0.065464 1.462513
v -1.001699 0.029999 1.585658
v -0.937804 0.029999 1.473977
v 1.262350 0.030000 -0.977471
v 1.177281 -0.065463 -1.115919
v 1.244328 -0.065463 -0.937711
v 1.217042 0.030000 -1.097898
v 0.506934 -0.065463 -0.506310
v 0.277408 -0.065463 -0.693157
v 0.439431 0.030000 -0.499391
v 0.284327 0.030000 -0.625655
v -0.813932 0.030000 1.526566
v -0.996950 -0.065463 1.321827
v -0.831976 -0.065463 1.598101
v -0.925415 0.030000 1.339871
v 1.422536 -0.065463 -1.004757
v 1.337468 0.030000 -1.143205
v 1.382776 0.030000 -1.022779
v 1.355490 -0.065463 -1.182965
v 0.090561 -0.065463 -0.463631
v 0.284327 0.030000 -0.625655
v 0.277408 -0.065463 -0.693157
v 0.158063 0.030000 -0.470550
v -0.555701 -0.065463 1.433128
v -0.738719 0.030000 1.228388
v -0.627236 0.030000 1.415084
v -0.720675 -0.065463 1.156853
v -0.084930 -0.065463 -0.631846
v -0.203739 0.030000 -0.742700
v -0.128050 0.030000 -0.638650
v -0.196935 -0.065463 -0.785821
v 0.320086 -0.065463 -0.276784
v 0.506934 -0.065463 -0.506310
v 0.313167 0.030000 -0.344286
v 0.439431 0.030000 -0.499391
v -0.720675 -0.065463 1.156853
v -0.925415 0.030000 1.339871
v -0.738719 0.030000 1.228388
v -0.996950 -0.065463 1.321827
v -0.232101 0.030000 -0.562961
v -0.350910 -0.065463 -0.673816
v -0.238905 -0.065463 -0.519841
v -0.307789 0.030000 -0.667012
v 0.116883 0.030000 -0.194689
v 0.026553 -0.065463 -0.329761
v 0.100404 -0.065463 -0.154265
v 0.066977 0.030000 -0.313282
v -0.831976 -0.065463 1.598101
v -0.627236 0.030000 1.415084
v -0.813932 0.030000 1.526566
v -0.555701 -0.065463 1.433128
v -0.238905 -0.065463 -0.519841
v -0.128050 0.030000 -0.638650
v -0.232101 0.030000 -0.562961
v -0.084930 -0.065463 -0.631846
v 0.275901 -0.065463 -0.228115
v 0.185571 0.030000 -0.363188
v 0.235477 0.030000 -0.244594
v 0.202050 -0.065463 -0.403612
v -0.733389 -0.065463 0.410060
v -0.851440 0.030000 0.193996
v -0.792167 0.030000 0.379723
v -0.821103 -0.065463 0.135219
v -0.196935 -0.065463 -0.785821
v -0.307789 0.030000 -0.667012
v -0.203739 0.030000 -0.742700
v -0.350910 -0.065463 -0.673816
v 0.202050 -0.065463 -0.403612
v 0.066977 0.030000 -0.313282
v 0.185571 0.030000 -0.363188
v 0.026553 -0.065463 -0.329761
v -0.977895 0.030000 0.438997
v -1.095945 -0.065463 0.222932
v -1.008232 -0.065463 0.497774
v -1.037168 0.030000 0.253269
v 1.061983 -0.065464 1.616051
v 1.199688 0.029999 1.529786
v 1.079659 0.029999 1.576136
v 1.239603 -0.065464 1.547462
v 0.100404 -0.065463 -0.154265
v 0.235477 0.030000 -0.244594
v 0.116883 0.030000 -0.194689
v 0.275901 -0.065463 -0.228115
v -1.008232 -0.065463 0.497774
v -0.792167 0.030000 0.379723
v -0.977895 0.030000 0.438997
v -0.733389 -0.065463 0.410060
v 1.171015 -0.065464 1.369842
v 1.033310 0.029999 1.456107
v 1.153339 0.029999 1.409757
v 0.993394 -0.065464 1.438431
v 1.256787 -0.065463 -1.153054
v 1.272940 -0.065463 -1.448576
v 1.211496 0.030000 -1.203583
v 1.222411 0.030000 -1.403285
vt 0.831865 0.545312
vt 0.767907 0.545312
vt 0.831865 0.545312
vt 0.767907 0.545312
vt 0.831865 0.585766
vt 0.767907 0.585626
vt 0.831865 0.605853
vt 0.767907 0.565539
vt 0.767907 0.585766
vt 0.831865 0.565539
vt 0.767907 0.605853
vt 0.831865 0.585626
vt 0.767907 0.626080
vt 0.767907 0.605853
vt 0.769506 0.610875
vt 0.769506 0.631102
vt 0.767907 0.626080
vt 0.831865 0.605853
vt 0.830266 0.610875
vt 0.769506 0.631102
vt 0.769506 0.610875
vt 0.830266 0.631102
vt 0.831865 0.626080
vt 0.767907 0.605853
vt 0.831865 0.626080
vt 0.830266 0.610875
vt 0.830266 0.631102
vt 0.831865 0.605853
vt 0.831865 0.585766
vt 0.831865 0.585626
vt 0.831865 0.605853
vt 0.831865 0.565539
vt 0.830266 0.651329
vt 0.769506 0.651329
vt 0.830266 0.651329
vt 0.769506 0.651329
vt 0.767907 0.565539
vt 0.767907 0.605853
vt 0.767907 0.585766
vt 0.767907 0.585626
vt 0.794478 0.719642
vt 0.780936 0.733184
vt 0.780936 0.719642
vt 0.794478 0.733184
vt 0.794478 0.719642
vt 0.780936 0.733184
vt 0.780936 0.719642
vt 0.794478 0.733184
vt 0.794478 0.719642
vt 0.780936 0.733184
vt 0.780936 0.719642
vt 0.794478 0.733184
vt 0.780936 0.733184
vt 0.794478 0.719642
vt 0.794478 0.733184
vt 0.780936 0.719642
vt 0.780936 0.733184
vt 0.794478 0.719642
vt 0.794478 0.733184
vt 0.780936 0.719642
vt 0.780936 0.727518
vt 0.794478 0.706875
vt 0.794478 0.727518
vt 0.780936 0.706875
vt 0.794478 0.706875
vt 0.780936 0.727518
vt 0.780936 0.706875
vt 0.794478 0.727518
vt 0.794478 0.706875
vt 0.780936 0.727518
vt 0.780936 0.706875
vt 0.794478 0.727518
vt 0.780936 0.733184
vt 0.794478 0.719642
vt 0.794478 0.733184
vt 0.780936 0.719642
vt 0.780936 0.733184
vt 0.794478 0.719642
vt 0.794478 0.733184
vt 0.780936 0.719642
vt 0.780936 0.719642
vt 0.780936 0.733184
vt 0.780936 0.719642
vt 0.794478 0.727518
vt 0.794478 0.706875
vt 0.794478 0.727518
vt 0.794478 0.706875
vt 0.794478 0.719642
vt 0.780936 0.719642
vt 0.794478 0.719642
vt 0.780936 0.733184
vt 0.794478 0.733184
vt 0.780936 0.733184
vt 0.780936 0.727518
vt 0.780936 0.706875
vt 0.780936 0.727518
vt 0.780936 0.706875
vt 0.794478 0.719642
vt 0.794478 0.733184
vt 0.794478 0.719642
vt 0.794478 0.733184
vt 0.780936 0.719642
vt 0.794478 0.719642
vt 0.780936 0.719642
vt 0.794478 0.719642
vt 0.780936 0.727518
vt 0.794478 0.727518
vt 0.780936 0.727518
vt 0.794478 0.727518
vt 0.780936 0.733184
vt 0.780936 0.719642
vt 0.780936 0.733184
vt 0.780936 0.719642
vt 0.794478 0.733184
vt 0.794478 0.719642
vt 0.794478 0.733184
vt 0.794478 0.719642
vt 0.794478 0.706875
vt 0.780936 0.706875
vt 0.780936 0.706875
vt 0.794478 0.706875
vt 0.794478 0.733184
vt 0.780936 0.733184
vt 0.794478 0.733184
vt 0.780936 0.733184
vt 0.780936 0.733184
vt 0.780936 0.719642
vt 0.780936 0.733184
vt 0.780936 0.719642
vt 0.794478 0.727518
vt 0.794478 0.706875
vt 0.794478 0.706875
vt 0.794478 0.727518
vt 0.780936 0.719642
vt 0.794478 0.719642
vt 0.780936 0.719642
vt 0.794478 0.719642
vt 0.794478 0.733184
vt 0.780936 0.733184
vt 0.794478 0.733184
vt 0.780936 0.733184
vt 0.780936 0.727518
vt 0.780936 0.706875
vt 0.780936 0.727518
vt 0.780936 0.706875
vt 0.794478 0.719642
vt 0.794478 0.733184
vt 0.794478 0.719642
vt 0.780936 0.719642
vt 0.794478 0.719642
vt 0.780936 0.719642
vt 0.794478 0.719642
vt 0.780936 0.727518
vt 0.794478 0.727518
vt 0.780936 0.727518
vt 0.794478 0.727518
vt 0.780936 0.733184
vt 0.780936 0.719642
vt 0.780936 0.733184
vt 0.780936 0.719642
vt 0.794478 0.733184
vt 0.794478 0.719642
vt 0.794478 0.719642
vt 0.794478 0.733184
vt 0.780936 0.706875
vt 0.794478 0.706875
vt 0.780936 0.706875
vt 0.794478 0.706875
vt 0.794478 0.733184
vt 0.780936 0.733184
vt 0.794478 0.733184
vt 0.780936 0.733184
vt 0.780936 0.733184
vt 0.780936 0.719642
vt 0.780936 0.733184
vt 0.780936 0.719642
vt 0.794478 0.706875
vt 0.794478 0.727518
vt 0.794478 0.706875
vt 0.794478 0.727518
vt 0.794478 0.719642
vt 0.780936 0.719642
vt 0.794478 0.719642
vt 0.780936 0.719642
vt 0.780936 0.733184
vt 0.794478 0.733184
vt 0.780936 0.733184
vt 0.794478 0.733184
vt 0.780936 0.727518
vt 0.780936 0.706875
vt 0.780936 0.727518
vt 0.780936 0.706875
vt 0.794478 0.719642
vt 0.794478 0.733184
vt 0.794478 0.719642
vt 0.794478 0.733184
vt 0.780936 0.719642
vt 0.794478 0.719642
vt 0.780936 0.719642
vt 0.794478 0.719642
vt 0.794478 0.733184
vt 0.780936 0.733184
vt 0.794478 0.733184
vt 0.780936 0.733184
vt 0.780936 0.733184
vt 0.780936 0.719642
vt 0.780936 0.733184
vt 0.780936 0.719642
vt 0.794478 0.719642
vt 0.794478 0.733184
vt 0.794478 0.719642
vt 0.794478 0.733184
vt 0.794478 0.719642
vt 0.780936 0.719642
vt 0.794478 0.719642
vt 0.780936 0.719642
vt 0.794478 0.727518
vt 0.780936 0.727518
vt 0.794478 0.727518
vt 0.780936 0.727518
vt 0.780936 0.733184
vt 0.780936 0.719642
vt 0.780936 0.733184
vt 0.780936 0.719642
vt 0.794478 0.719642
vt 0.794478 0.733184
vt 0.794478 0.719642
vt 0.794478 0.733184
vt 0.780936 0.706875
vt 0.794478 0.706875
vt 0.780936 0.706875
vt 0.794478 0.706875
vt 0.794478 0.733184
vt 0.780936 0.733184
vt 0.794478 0.733184
vt 0.780936 0.733184
vt 0.780936 0.733184
vt 0.780936 0.719642
vt 0.794478 0.733184
vt 0.794478 0.733184
vn 0.0000 -1.0000 -0.0000
vn 0.0000 0.0000 -1.0000
vn 0.0000 -0.0000 1.0000
vn -0.7071 0.7071 0.0000
vn 0.0000 0.7071 0.7071
vn 0.0000 0.7071 -0.7071
vn 0.7071 0.7071 0.0000
vn 1.0000 0.0000 0.0000
vn 0.0000 1.0000 0.0000
vn -1.0000 0.0000 0.0000
vn -0.2730 0.4400 -0.8555
vn -0.8876 0.3077 0.3428
vn -0.8922 0.4491 -0.0488
vn 0.3351 0.3077 0.8906
vn 0.8876 0.3077 -0.3428
vn -0.0488 0.4491 0.8922
vn -0.3350 0.3077 -0.8906
vn -0.4725 0.3077 0.8259
vn 0.0488 0.4491 -0.8922
vn -0.8906 0.3077 0.3350
vn 0.4725 0.3077 -0.8259
vn 0.3350 0.3077 0.8906
vn 0.8906 0.3077 -0.3350
vn -0.8259 0.3077 -0.4725
vn -0.5641 0.4491 0.6929
vn 0.8259 0.3077 0.4725
vn 0.5641 0.4491 -0.6929
vn -0.7534 0.4795 0.4499
vn -0.6929 0.4491 -0.5641
vn 0.7534 0.4795 -0.4499
vn 0.7695 0.3077 -0.5597
vn 0.6929 0.4491 0.5641
vn -0.4499 0.4795 -0.7534
vn -0.7695 0.3077 0.5597
vn -0.8770 0.3077 0.3691
vn 0.4499 0.4795 0.7534
vn 0.5597 0.3077 0.7695
vn 0.8770 0.3077 -0.3691
vn 0.8555 0.4400 -0.2730
vn -0.5597 0.3077 -0.7695
vn -0.3691 0.3077 -0.8770
vn -0.8555 0.4400 0.2730
vn 0.3428 0.3077 0.8876
vn 0.3691 0.3077 0.8770
vn 0.2730 0.4400 0.8555
vn -0.3428 0.3077 -0.8876
vn 0.8922 0.4491 0.0488
vn -0.8906 0.3077 0.3351
usemtl HalloweenBits
s off
f 1/1/1 2/2/1 3/3/1
f 1/1/1 4/4/1 2/2/1
f 5/5/2 6/6/2 7/7/2
f 5/5/2 8/8/2 6/6/2
f 9/9/3 10/10/3 11/11/3
f 12/12/3 11/11/3 10/10/3
f 13/13/4 14/14/4 15/15/4
f 13/13/4 15/15/4 16/16/4
f 17/17/5 18/18/5 19/19/5
f 17/17/5 19/19/5 20/20/5
f 21/21/6 22/22/6 23/23/6
f 21/21/6 23/23/6 24/24/6
f 25/25/7 26/26/7 27/27/7
f 25/25/7 28/28/7 26/26/7
f 29/29/8 30/30/8 31/31/8
f 30/30/8 29/29/8 32/32/8
f 33/33/9 34/34/9 35/35/9
f 34/34/9 33/33/9 36/36/9
f 37/37/10 38/38/10 39/39/10
f 38/38/10 37/37/10 40/40/10
f 41/41/9 42/42/9 43/43/9
f 42/42/9 41/41/9 44/44/9
f 45/45/9 46/46/9 47/47/9
f 46/46/9 45/45/9 48/48/9
f 49/49/9 50/50/9 51/51/9
f 50/50/9 49/49/9 52/52/9
f 53/53/9 54/54/9 55/55/9
f 54/54/9 53/53/9 56/56/9
f 57/57/9 58/58/9 59/59/9
f 58/58/9 57/57/9 60/60/9
f 61/61/9 62/62/9 63/63/9
f 62/62/9 61/61/9 64/64/9
f 65/65/9 66/66/9 67/67/9
f 66/66/9 65/65/9 68/68/9
f 69/69/9 70/70/9 71/71/9
f 70/70/9 69/69/9 72/72/9
f 73/73/9 74/74/9 75/75/9
f 74/74/9 73/73/9 76/76/9
f 77/77/9 78/78/9 79/79/9
f 78/78/9 77/77/9 80/80/9
f 82/81/11 81/82/11 84/83/11
f 85/84/12 86/85/12 87/86/12
f 86/85/12 85/84/12 88/87/12
f 89/88/13 90/89/13 91/90/13
f 94/91/14 93/92/14 96/93/14
f 97/94/15 98/95/15 99/96/15
f 98/95/15 97/94/15 100/97/15
f 101/98/16 102/99/16 103/100/16
f 103/100/16 102/99/16 104/101/16
f 105/102/17 106/103/17 107/104/17
f 106/103/17 105/102/17 108/105/17
f 109/106/18 110/107/18 111/108/18
f 110/107/18 112/109/18 111/108/18
f 113/110/19 114/111/19 115/112/19
f 115/112/19 114/111/19 116/113/19
f 117/114/20 118/115/20 119/116/20
f 118/115/20 117/114/20 120/117/20
f 121/118/21 122/119/21 123/120/21
f 122/119/21 121/118/21 124/121/21
f 125/122/14 126/123/14 127/124/14
f 126/123/22 125/122/22 128/125/22
f 129/126/23 130/127/23 131/128/23
f 130/127/23 129/126/23 132/129/23
f 133/130/24 134/131/24 135/132/24
f 133/130/24 136/133/24 134/131/24
f 137/134/17 138/135/17 139/136/17
f 138/135/17 137/134/17 140/137/17
f 141/138/25 142/139/25 143/140/25
f 144/141/25 143/140/25 142/139/25
f 145/142/26 146/143/26 147/144/26
f 147/144/26 146/143/26 148/145/26
f 150/146/20 149/147/20 152/148/20
f 153/149/27 154/150/27 155/151/27
f 155/151/27 154/150/27 156/152/27
f 157/153/28 158/154/28 159/155/28
f 158/154/28 157/153/28 160/156/28
f 161/157/23 162/158/23 163/159/23
f 162/158/23 161/157/23 164/160/23
f 165/161/29 166/162/29 167/163/29
f 165/161/29 168/164/29 166/162/29
f 169/165/30 170/166/30 171/167/30
f 170/166/30 169/165/30 172/168/30
f 173/169/31 174/170/31 175/171/31
f 174/170/31 173/169/31 176/172/31
f 177/173/32 178/174/32 179/175/32
f 179/175/32 178/174/32 180/176/32
f 181/177/33 182/178/33 183/179/33
f 182/178/33 181/177/33 184/180/33
f 185/181/34 186/182/34 187/183/34
f 186/182/34 185/181/34 188/184/34
f 189/185/35 190/186/35 191/187/35
f 190/186/35 189/185/35 192/188/35
f 193/189/36 194/190/36 195/191/36
f 194/190/36 193/189/36 196/192/36
f 197/193/37 198/194/37 199/195/37
f 198/194/37 197/193/37 200/196/37
f 201/197/38 202/198/38 203/199/38
f 202/198/38 201/197/38 204/200/38
f 205/201/39 206/202/39 207/203/39
f 206/202/39 205/201/39 208/204/39
f 209/205/40 210/206/40 211/207/40
f 210/206/40 209/205/40 212/208/40
f 213/209/41 214/210/41 215/211/41
f 214/210/41 213/209/41 216/212/41
f 217/213/42 218/214/42 219/215/42
f 218/214/42 217/213/42 220/216/42
f 221/217/43 222/218/43 223/219/43
f 222/218/43 221/217/43 224/220/43
f 225/221/44 226/222/44 227/223/44
f 226/222/44 225/221/44 228/224/44
f 229/225/45 230/226/45 231/227/45
f 230/226/45 229/225/45 232/228/45
f 233/229/46 234/230/46 235/231/46
f 234/230/46 233/229/46 236/232/46
f 237/233/47 238/234/47 239/235/47
f 239/235/47 238/234/47 240/236/47
s 1
f 81/82/11 82/81/11 83/237/11
f 91/90/13 90/89/13 92/238/13
f 93/92/22 94/91/22 95/239/22
f 149/147/48 150/146/48 151/240/48
